<svg aria-hidden="true" style="position:absolute;width:0;height:0;overflow:hidden" xmlns="http://www.w3.org/2000/svg"><defs><symbol id="click" viewBox="0 0 21 32"><path fill="#fff" style="fill:var(--color1, #fff)" d="M19.042 17.747 1.832.537a1.002 1.002 0 0 0-.735-.32h-.023.001a1.074 1.074 0 0 0-.41.087L.672.301A1.082 1.082 0 0 0 0 1.293v25.278c0 .437.269.823.672.992.119.051.257.081.402.083h.001a1.07 1.07 0 0 0 .757-.32l5.244-5.242 3.209 7.597a1.084 1.084 0 0 0 1.419.568l-.007.003 2.974-1.261a1.082 1.082 0 0 0 .569-1.419l.003.007-3.377-8h6.419c.446-.003.828-.277.989-.665l.003-.007a1.032 1.032 0 0 0-.235-1.159z"/></symbol><symbol id="empty-star" viewBox="0 0 32 32"><path fill="#f3cd03" style="fill:var(--color2, #f3cd03)" d="m7.07 19.04-2.304 9.967a1.543 1.543 0 0 0 2.367 1.63l-.005.003 8.413-5.608 8.411 5.608a1.544 1.544 0 0 0 2.341-1.72l.003.011-2.826-9.886 7.006-6.306a1.544 1.544 0 0 0-.904-2.688h-.006l-8.808-.702-3.81-8.436A1.542 1.542 0 0 0 14.14.904l-.004.01-3.813 8.438-8.807.697a1.547 1.547 0 0 0-1.422 1.54c0 .433.178.824.465 1.104l6.511 6.346zm4.408-6.683a1.544 1.544 0 0 0 1.281-.896l.004-.01 2.779-6.149 2.779 6.149c.23.505.711.859 1.28.906h.006l6.136.487-5.053 4.547a1.543 1.543 0 0 0-.45 1.584l-.003-.011 1.937 6.774-5.772-3.848a1.53 1.53 0 0 0-1.718.003l.005-.003-6.031 4.022 1.622-7.023a1.541 1.541 0 0 0-.426-1.452L5.16 12.861l6.319-.504z"/></symbol><symbol id="facebook" viewBox="0 0 32 32"><path fill="none" stroke="#02897a" style="stroke:var(--color3, #02897a)" stroke-linejoin="round" stroke-linecap="round" stroke-width="2.667" d="M24 2.667h-4a6.667 6.667 0 0 0-6.667 6.667v4h-4v5.333h4v10.667h5.333V18.667h4l1.333-5.333h-5.333v-4c0-.736.597-1.333 1.333-1.333v0h4V2.668z"/></symbol><symbol id="full-star" viewBox="0 0 32 32"><path fill="#f3cd03" style="fill:var(--color2, #f3cd03)" d="M30.883 11.094a1.551 1.551 0 0 0-1.335-1.044h-.006l-8.808-.701L16.926.913a1.541 1.541 0 0 0-2.81-.009l-.004.01-3.811 8.438-8.808.699a1.545 1.545 0 0 0-.955 2.643l6.508 6.346-2.301 9.967a1.544 1.544 0 0 0 2.368 1.63l-.005.003 8.411-5.608 8.413 5.608a1.548 1.548 0 0 0 2.34-1.72l.003.011-2.826-9.886 7.008-6.307a1.545 1.545 0 0 0 .427-1.655l.003.011z"/></symbol><symbol id="heart" viewBox="0 0 37 32"><path fill="#fff" style="fill:var(--color1, #fff)" d="M18.286 31.938h.008c.347 0 .662-.14.89-.366l12.713-12.247c.183-.183 4.674-4.286 4.674-9.184 0-5.979-3.653-9.547-9.755-9.547-3.57-.002-6.919 2.811-8.53 4.405-1.611-1.591-4.96-4.405-8.53-4.405C3.653.592.001 4.16.001 10.141c0 4.898 4.489 9.001 4.654 9.143L17.389 31.57c.245.245.571.366.898.366z"/></symbol><symbol id="instagram" viewBox="0 0 31 32"><path fill="none" stroke="#02897a" style="stroke:var(--color3, #02897a)" stroke-linejoin="round" stroke-linecap="round" stroke-width="2.56" d="M21.76 2.58H8.96a6.4 6.4 0 0 0-6.4 6.4v12.8a6.4 6.4 0 0 0 6.4 6.4v0h12.8a6.4 6.4 0 0 0 6.4-6.4v0-12.8a6.4 6.4 0 0 0-6.4-6.4v0z"/><path fill="none" stroke="#02897a" style="stroke:var(--color3, #02897a)" stroke-linejoin="round" stroke-linecap="round" stroke-width="2.56" d="M20.48 14.574a5.12 5.12 0 0 1-10.126 1.53l-.004-.028a5.12 5.12 0 0 1 10.126-1.53l.004.028zM22.4 8.34h.013"/></symbol><symbol id="play" viewBox="0 0 29 32"><path fill="#02897a" style="fill:var(--color3, #02897a)" d="M26.698 14.366c1.245.733 1.245 2.535 0 3.267L3.697 31.162c-1.263.741-2.855-.168-2.855-1.634V2.469C.842 1.004 2.434.094 3.697.835l23.001 13.529z"/></symbol><symbol id="surveys" viewBox="0 0 41 32"><path fill="#fff" style="fill:var(--color1, #fff)" d="m21.673 12.51 2.674 1.246 3.977-1.184V9.795c0-4.713-3.977-8.489-8.731-8.489-4.736 0-8.736 3.755-8.736 8.432v12.651c0 1.166-.937 2.082-2.08 2.082s-2.082-.919-2.082-2.08v-5.349H0v5.426a8.754 8.754 0 0 0 8.754 8.754c4.798 0 8.754-3.856 8.754-8.631V10.1c0-1.143.939-2.08 2.082-2.08s2.082.937 2.082 2.08v2.409zm10.816 4.53v5.611c0 1.143-.937 2.062-2.08 2.062s-2.082-.919-2.082-2.062v-5.509l-3.979 1.184-2.674-1.246v5.47c0 4.795 3.938 8.672 8.754 8.672a8.754 8.754 0 0 0 8.754-8.754v-5.429h-6.693z"/></symbol><symbol id="theme" viewBox="0 0 32 32"><path fill="#02897a" style="fill:var(--color3, #02897a)" d="M16 29.333c7.352 0 13.333-5.981 13.333-13.333S23.352 2.667 16 2.667 2.667 8.648 2.667 16 8.648 29.333 16 29.333zm0-24c5.881 0 10.667 4.785 10.667 10.667S21.882 26.667 16 26.667 5.333 21.882 5.333 16 10.118 5.333 16 5.333z"/><path fill="#02897a" style="fill:var(--color3, #02897a)" d="M25.333 16A9.333 9.333 0 0 0 16 6.667v18.667a9.333 9.333 0 0 0 9.333-9.333z"/></symbol><symbol id="time" viewBox="0 0 26 32"><path fill="#fff" style="fill:var(--color1, #fff)" d="M23.663 2.37h1.615a.53.53 0 0 0 .536-.538V.749a.531.531 0 0 0-.531-.531H.53a.531.531 0 0 0-.531.531V1.83c0 .305.235.54.538.54H2.15c0 6.217 2.974 10.722 6.268 12.907-3.294 2.184-6.268 6.688-6.268 12.907H.529a.531.531 0 0 0-.531.531v1.083c0 .301.235.538.538.538h24.74a.53.53 0 0 0 .536-.538v-1.083a.531.531 0 0 0-.531-.531H23.66c0-6.219-2.974-10.722-6.268-12.907 3.294-2.184 6.268-6.69 6.268-12.907zm-2.15 0v.082c0 2.315-.528 4.506-1.47 6.46l.039-.089H5.733C4.83 6.958 4.302 4.767 4.302 2.452v-.086.004h17.212zm-.96 20.437H5.263c1.242-3.243 3.479-5.547 5.713-6.455h3.866c2.234.907 4.471 3.211 5.715 6.455z"/></symbol><symbol id="twitter" viewBox="0 0 38 32"><path fill="none" stroke="#02897a" style="stroke:var(--color3, #02897a)" stroke-linejoin="round" stroke-linecap="round" stroke-width="3.2" d="M36.8 1.616a17.22 17.22 0 0 1-4.9 2.415l-.124.033A7.168 7.168 0 0 0 19.2 8.869v-.005 1.6c-.132.004-.287.006-.442.006-5.748 0-10.832-2.844-13.922-7.201L4.8 3.216s-6.4 14.4 8 20.8c-2.931 2.013-6.555 3.215-10.46 3.215-.26 0-.519-.005-.777-.016l.037.001c14.4 8 32 0 32-18.4 0-.445-.045-.89-.128-1.328a12.339 12.339 0 0 0 3.31-5.787l.018-.085z"/></symbol><symbol id="check" viewBox="0 0 39 32"><path fill="#fff" d="M38.809 1.329c-.353-.364-.847-.59-1.393-.59s-1.04.226-1.393.59L12.432 25.427l-9.068-9.263c-.353-.364-.847-.59-1.393-.59s-1.04.226-1.393.59c-.356.367-.576.869-.576 1.422s.22 1.054.576 1.422v-.001L11.04 29.69a1.938 1.938 0 0 0 2.786 0L38.811 4.174c.356-.367.576-.869.576-1.422s-.22-1.054-.576-1.422l.001.001z"/></symbol></defs></svg>